# Blender v3.0.0 OBJ File: ''
# www.blender.org
mtllib modular_barrel.mtl
o BarrelSleeve_Cylinder.001
v 0.000000 0.000000 -0.140000
v 0.000000 0.500000 -0.140000
v 0.053576 0.000000 -0.129343
v 0.053576 0.500000 -0.129343
v 0.098995 0.000000 -0.098995
v 0.098995 0.500000 -0.098995
v 0.129343 0.000000 -0.053576
v 0.129343 0.500000 -0.053576
v 0.140000 0.000000 0.000000
v 0.140000 0.500000 0.000000
v 0.129343 0.000000 0.053576
v 0.129343 0.500000 0.053576
v 0.098995 0.000000 0.098995
v 0.098995 0.500000 0.098995
v 0.053576 0.000000 0.129343
v 0.053576 0.500000 0.129343
v -0.000000 0.000000 0.140000
v -0.000000 0.500000 0.140000
v -0.053576 0.000000 0.129343
v -0.053576 0.500000 0.129343
v -0.098995 0.000000 0.098995
v -0.098995 0.500000 0.098995
v -0.129343 0.000000 0.053576
v -0.129343 0.500000 0.053576
v -0.140000 0.000000 -0.000000
v -0.140000 0.500000 -0.000000
v -0.129343 0.000000 -0.053576
v -0.129343 0.500000 -0.053576
v -0.098995 0.000000 -0.098995
v -0.098995 0.500000 -0.098995
v -0.053576 0.000000 -0.129343
v -0.053576 0.500000 -0.129343
v 0.000000 0.500000 -0.080000
v 0.000000 2.300000 -0.052000
v 0.030615 0.500000 -0.073910
v 0.019900 2.300000 -0.048042
v 0.056569 0.500000 -0.056569
v 0.036770 2.300000 -0.036770
v 0.073910 0.500000 -0.030615
v 0.048042 2.300000 -0.019900
v 0.080000 0.500000 0.000000
v 0.052000 2.300000 0.000000
v 0.073910 0.500000 0.030615
v 0.048042 2.300000 0.019900
v 0.056569 0.500000 0.056569
v 0.036770 2.300000 0.036770
v 0.030615 0.500000 0.073910
v 0.019900 2.300000 0.048042
v -0.000000 0.500000 0.080000
v -0.000000 2.300000 0.052000
v -0.030615 0.500000 0.073910
v -0.019900 2.300000 0.048042
v -0.056569 0.500000 0.056569
v -0.036770 2.300000 0.036770
v -0.073910 0.500000 0.030615
v -0.048042 2.300000 0.019900
v -0.080000 0.500000 -0.000000
v -0.052000 2.300000 -0.000000
v -0.073910 0.500000 -0.030615
v -0.048042 2.300000 -0.019900
v -0.056569 0.500000 -0.056569
v -0.036770 2.300000 -0.036770
v -0.030615 0.500000 -0.073910
v -0.019900 2.300000 -0.048042
v 0.000000 2.275000 -0.130000
v 0.000000 2.525000 -0.130000
v 0.049749 2.275000 -0.120104
v 0.049749 2.525000 -0.120104
v 0.091924 2.275000 -0.091924
v 0.091924 2.525000 -0.091924
v 0.120104 2.275000 -0.049749
v 0.120104 2.525000 -0.049749
v 0.130000 2.275000 0.000000
v 0.130000 2.525000 0.000000
v 0.120104 2.275000 0.049749
v 0.120104 2.525000 0.049749
v 0.091924 2.275000 0.091924
v 0.091924 2.525000 0.091924
v 0.049749 2.275000 0.120104
v 0.049749 2.525000 0.120104
v -0.000000 2.275000 0.130000
v -0.000000 2.525000 0.130000
v -0.049749 2.275000 0.120104
v -0.049749 2.525000 0.120104
v -0.091924 2.275000 0.091924
v -0.091924 2.525000 0.091924
v -0.120104 2.275000 0.049749
v -0.120104 2.525000 0.049749
v -0.130000 2.275000 -0.000000
v -0.130000 2.525000 -0.000000
v -0.120104 2.275000 -0.049749
v -0.120104 2.525000 -0.049749
v -0.091924 2.275000 -0.091924
v -0.091924 2.525000 -0.091924
v -0.049749 2.275000 -0.120104
v -0.049749 2.525000 -0.120104
vt 1.000000 0.500000
vt 1.000000 1.000000
vt 0.937500 1.000000
vt 0.937500 0.500000
vt 0.875000 1.000000
vt 0.875000 0.500000
vt 0.812500 1.000000
vt 0.812500 0.500000
vt 0.750000 1.000000
vt 0.750000 0.500000
vt 0.687500 1.000000
vt 0.687500 0.500000
vt 0.625000 1.000000
vt 0.625000 0.500000
vt 0.562500 1.000000
vt 0.562500 0.500000
vt 0.500000 1.000000
vt 0.500000 0.500000
vt 0.437500 1.000000
vt 0.437500 0.500000
vt 0.375000 1.000000
vt 0.375000 0.500000
vt 0.312500 1.000000
vt 0.312500 0.500000
vt 0.250000 1.000000
vt 0.250000 0.500000
vt 0.187500 1.000000
vt 0.187500 0.500000
vt 0.125000 1.000000
vt 0.125000 0.500000
vt 0.341844 0.471731
vt 0.250000 0.490000
vt 0.158156 0.471731
vt 0.080294 0.419706
vt 0.028269 0.341844
vt 0.010000 0.250000
vt 0.028269 0.158156
vt 0.080294 0.080294
vt 0.158156 0.028269
vt 0.250000 0.010000
vt 0.341844 0.028269
vt 0.419706 0.080294
vt 0.471731 0.158156
vt 0.490000 0.250000
vt 0.471731 0.341844
vt 0.419706 0.419706
vt 0.062500 1.000000
vt 0.062500 0.500000
vt 0.000000 1.000000
vt 0.000000 0.500000
vt 0.750000 0.490000
vt 0.841844 0.471731
vt 0.919706 0.419706
vt 0.971731 0.341844
vt 0.990000 0.250000
vt 0.971731 0.158156
vt 0.919706 0.080294
vt 0.841844 0.028269
vt 0.750000 0.010000
vt 0.658156 0.028269
vt 0.580294 0.080294
vt 0.528269 0.158156
vt 0.510000 0.250000
vt 0.528269 0.341844
vt 0.580294 0.419706
vt 0.658156 0.471731
vt 1.000000 0.500000
vt 1.000000 1.000000
vt 0.937500 1.000000
vt 0.937500 0.500000
vt 0.875000 1.000000
vt 0.875000 0.500000
vt 0.812500 1.000000
vt 0.812500 0.500000
vt 0.750000 1.000000
vt 0.750000 0.500000
vt 0.687500 1.000000
vt 0.687500 0.500000
vt 0.625000 1.000000
vt 0.625000 0.500000
vt 0.562500 1.000000
vt 0.562500 0.500000
vt 0.500000 1.000000
vt 0.500000 0.500000
vt 0.437500 1.000000
vt 0.437500 0.500000
vt 0.375000 1.000000
vt 0.375000 0.500000
vt 0.312500 1.000000
vt 0.312500 0.500000
vt 0.250000 1.000000
vt 0.250000 0.500000
vt 0.187500 1.000000
vt 0.187500 0.500000
vt 0.125000 1.000000
vt 0.125000 0.500000
vt 0.341844 0.471731
vt 0.250000 0.490000
vt 0.158156 0.471731
vt 0.080294 0.419706
vt 0.028269 0.341844
vt 0.010000 0.250000
vt 0.028269 0.158156
vt 0.080294 0.080294
vt 0.158156 0.028269
vt 0.250000 0.010000
vt 0.341844 0.028269
vt 0.419706 0.080294
vt 0.471731 0.158156
vt 0.490000 0.250000
vt 0.471731 0.341844
vt 0.419706 0.419706
vt 0.062500 1.000000
vt 0.062500 0.500000
vt 0.000000 1.000000
vt 0.000000 0.500000
vt 0.750000 0.490000
vt 0.841844 0.471731
vt 0.919706 0.419706
vt 0.971731 0.341844
vt 0.990000 0.250000
vt 0.971731 0.158156
vt 0.919706 0.080294
vt 0.841844 0.028269
vt 0.750000 0.010000
vt 0.658156 0.028269
vt 0.580294 0.080294
vt 0.528269 0.158156
vt 0.510000 0.250000
vt 0.528269 0.341844
vt 0.580294 0.419706
vt 0.658156 0.471731
vt 1.000000 0.500000
vt 1.000000 1.000000
vt 0.937500 1.000000
vt 0.937500 0.500000
vt 0.875000 1.000000
vt 0.875000 0.500000
vt 0.812500 1.000000
vt 0.812500 0.500000
vt 0.750000 1.000000
vt 0.750000 0.500000
vt 0.687500 1.000000
vt 0.687500 0.500000
vt 0.625000 1.000000
vt 0.625000 0.500000
vt 0.562500 1.000000
vt 0.562500 0.500000
vt 0.500000 1.000000
vt 0.500000 0.500000
vt 0.437500 1.000000
vt 0.437500 0.500000
vt 0.375000 1.000000
vt 0.375000 0.500000
vt 0.312500 1.000000
vt 0.312500 0.500000
vt 0.250000 1.000000
vt 0.250000 0.500000
vt 0.187500 1.000000
vt 0.187500 0.500000
vt 0.125000 1.000000
vt 0.125000 0.500000
vt 0.341844 0.471731
vt 0.250000 0.490000
vt 0.158156 0.471731
vt 0.080294 0.419706
vt 0.028269 0.341844
vt 0.010000 0.250000
vt 0.028269 0.158156
vt 0.080294 0.080294
vt 0.158156 0.028269
vt 0.250000 0.010000
vt 0.341844 0.028269
vt 0.419706 0.080294
vt 0.471731 0.158156
vt 0.490000 0.250000
vt 0.471731 0.341844
vt 0.419706 0.419706
vt 0.062500 1.000000
vt 0.062500 0.500000
vt 0.000000 1.000000
vt 0.000000 0.500000
vt 0.750000 0.490000
vt 0.841844 0.471731
vt 0.919706 0.419706
vt 0.971731 0.341844
vt 0.990000 0.250000
vt 0.971731 0.158156
vt 0.919706 0.080294
vt 0.841844 0.028269
vt 0.750000 0.010000
vt 0.658156 0.028269
vt 0.580294 0.080294
vt 0.528269 0.158156
vt 0.510000 0.250000
vt 0.528269 0.341844
vt 0.580294 0.419706
vt 0.658156 0.471731
vn 0.1951 0.0000 -0.9808
vn 0.5556 0.0000 -0.8315
vn 0.8315 0.0000 -0.5556
vn 0.9808 0.0000 -0.1951
vn 0.9808 0.0000 0.1951
vn 0.8315 0.0000 0.5556
vn 0.5556 0.0000 0.8315
vn 0.1951 0.0000 0.9808
vn -0.1951 0.0000 0.9808
vn -0.5556 0.0000 0.8315
vn -0.8315 0.0000 0.5556
vn -0.9808 0.0000 0.1951
vn -0.9808 0.0000 -0.1951
vn -0.8315 0.0000 -0.5556
vn 0.0000 1.0000 -0.0000
vn -0.5556 0.0000 -0.8315
vn -0.1951 0.0000 -0.9808
vn 0.0000 -1.0000 0.0000
vn 0.1951 0.0153 -0.9807
vn 0.5555 0.0153 -0.8314
vn 0.8314 0.0153 -0.5555
vn 0.9807 0.0153 -0.1951
vn 0.9807 0.0153 0.1951
vn 0.8314 0.0153 0.5555
vn 0.5555 0.0153 0.8314
vn 0.1951 0.0153 0.9807
vn -0.1951 0.0153 0.9807
vn -0.5555 0.0153 0.8314
vn -0.8314 0.0153 0.5555
vn -0.9807 0.0153 0.1951
vn -0.9807 0.0153 -0.1951
vn -0.8314 0.0153 -0.5555
vn -0.5555 0.0153 -0.8314
vn -0.1951 0.0153 -0.9807
usemtl None
s off
f 1/1/1 2/2/1 4/3/1 3/4/1
f 3/4/2 4/3/2 6/5/2 5/6/2
f 5/6/3 6/5/3 8/7/3 7/8/3
f 7/8/4 8/7/4 10/9/4 9/10/4
f 9/10/5 10/9/5 12/11/5 11/12/5
f 11/12/6 12/11/6 14/13/6 13/14/6
f 13/14/7 14/13/7 16/15/7 15/16/7
f 15/16/8 16/15/8 18/17/8 17/18/8
f 17/18/9 18/17/9 20/19/9 19/20/9
f 19/20/10 20/19/10 22/21/10 21/22/10
f 21/22/11 22/21/11 24/23/11 23/24/11
f 23/24/12 24/23/12 26/25/12 25/26/12
f 25/26/13 26/25/13 28/27/13 27/28/13
f 27/28/14 28/27/14 30/29/14 29/30/14
f 4/31/15 2/32/15 32/33/15 30/34/15 28/35/15 26/36/15 24/37/15 22/38/15 20/39/15 18/40/15 16/41/15 14/42/15 12/43/15 10/44/15 8/45/15 6/46/15
f 29/30/16 30/29/16 32/47/16 31/48/16
f 31/48/17 32/47/17 2/49/17 1/50/17
f 1/51/18 3/52/18 5/53/18 7/54/18 9/55/18 11/56/18 13/57/18 15/58/18 17/59/18 19/60/18 21/61/18 23/62/18 25/63/18 27/64/18 29/65/18 31/66/18
f 33/67/19 34/68/19 36/69/19 35/70/19
f 35/70/20 36/69/20 38/71/20 37/72/20
f 37/72/21 38/71/21 40/73/21 39/74/21
f 39/74/22 40/73/22 42/75/22 41/76/22
f 41/76/23 42/75/23 44/77/23 43/78/23
f 43/78/24 44/77/24 46/79/24 45/80/24
f 45/80/25 46/79/25 48/81/25 47/82/25
f 47/82/26 48/81/26 50/83/26 49/84/26
f 49/84/27 50/83/27 52/85/27 51/86/27
f 51/86/28 52/85/28 54/87/28 53/88/28
f 53/88/29 54/87/29 56/89/29 55/90/29
f 55/90/30 56/89/30 58/91/30 57/92/30
f 57/92/31 58/91/31 60/93/31 59/94/31
f 59/94/32 60/93/32 62/95/32 61/96/32
f 36/97/15 34/98/15 64/99/15 62/100/15 60/101/15 58/102/15 56/103/15 54/104/15 52/105/15 50/106/15 48/107/15 46/108/15 44/109/15 42/110/15 40/111/15 38/112/15
f 61/96/33 62/95/33 64/113/33 63/114/33
f 63/114/34 64/113/34 34/115/34 33/116/34
f 33/117/18 35/118/18 37/119/18 39/120/18 41/121/18 43/122/18 45/123/18 47/124/18 49/125/18 51/126/18 53/127/18 55/128/18 57/129/18 59/130/18 61/131/18 63/132/18
f 65/133/1 66/134/1 68/135/1 67/136/1
f 67/136/2 68/135/2 70/137/2 69/138/2
f 69/138/3 70/137/3 72/139/3 71/140/3
f 71/140/4 72/139/4 74/141/4 73/142/4
f 73/142/5 74/141/5 76/143/5 75/144/5
f 75/144/6 76/143/6 78/145/6 77/146/6
f 77/146/7 78/145/7 80/147/7 79/148/7
f 79/148/8 80/147/8 82/149/8 81/150/8
f 81/150/9 82/149/9 84/151/9 83/152/9
f 83/152/10 84/151/10 86/153/10 85/154/10
f 85/154/11 86/153/11 88/155/11 87/156/11
f 87/156/12 88/155/12 90/157/12 89/158/12
f 89/158/13 90/157/13 92/159/13 91/160/13
f 91/160/14 92/159/14 94/161/14 93/162/14
f 68/163/15 66/164/15 96/165/15 94/166/15 92/167/15 90/168/15 88/169/15 86/170/15 84/171/15 82/172/15 80/173/15 78/174/15 76/175/15 74/176/15 72/177/15 70/178/15
f 93/162/16 94/161/16 96/179/16 95/180/16
f 95/180/17 96/179/17 66/181/17 65/182/17
f 65/183/18 67/184/18 69/185/18 71/186/18 73/187/18 75/188/18 77/189/18 79/190/18 81/191/18 83/192/18 85/193/18 87/194/18 89/195/18 91/196/18 93/197/18 95/198/18
