# Blender v3.0.0 OBJ File: ''
# www.blender.org
mtllib modular_howitzer_barrel.mtl
o HowitzerSleeve_Cylinder.004
v 0.000000 0.000000 -0.220000
v 0.000000 0.800000 -0.220000
v 0.084190 0.000000 -0.203253
v 0.084190 0.800000 -0.203253
v 0.155563 0.000000 -0.155563
v 0.155563 0.800000 -0.155563
v 0.203253 0.000000 -0.084190
v 0.203253 0.800000 -0.084190
v 0.220000 0.000000 0.000000
v 0.220000 0.800000 0.000000
v 0.203254 0.000000 0.084190
v 0.203254 0.800000 0.084190
v 0.155563 0.000000 0.155563
v 0.155563 0.800000 0.155563
v 0.084190 0.000000 0.203253
v 0.084190 0.800000 0.203253
v -0.000000 0.000000 0.220000
v -0.000000 0.800000 0.220000
v -0.084190 0.000000 0.203253
v -0.084190 0.800000 0.203253
v -0.155563 0.000000 0.155564
v -0.155563 0.800000 0.155564
v -0.203253 0.000000 0.084190
v -0.203253 0.800000 0.084190
v -0.220000 0.000000 -0.000000
v -0.220000 0.800000 -0.000000
v -0.203253 0.000000 -0.084190
v -0.203253 0.800000 -0.084190
v -0.155564 0.000000 -0.155563
v -0.155564 0.800000 -0.155563
v -0.084190 0.000000 -0.203254
v -0.084190 0.800000 -0.203254
v 0.000000 0.800000 -0.160000
v 0.000000 2.300000 -0.160000
v 0.061229 0.800000 -0.147821
v 0.061229 2.300000 -0.147821
v 0.113137 0.800000 -0.113137
v 0.113137 2.300000 -0.113137
v 0.147821 0.800000 -0.061229
v 0.147821 2.300000 -0.061229
v 0.160000 0.800000 0.000000
v 0.160000 2.300000 0.000000
v 0.147821 0.800000 0.061229
v 0.147821 2.300000 0.061229
v 0.113137 0.800000 0.113137
v 0.113137 2.300000 0.113137
v 0.061229 0.800000 0.147821
v 0.061229 2.300000 0.147821
v -0.000000 0.800000 0.160000
v -0.000000 2.300000 0.160000
v -0.061229 0.800000 0.147821
v -0.061229 2.300000 0.147821
v -0.113137 0.800000 0.113137
v -0.113137 2.300000 0.113137
v -0.147821 0.800000 0.061229
v -0.147821 2.300000 0.061229
v -0.160000 0.800000 -0.000000
v -0.160000 2.300000 -0.000000
v -0.147821 0.800000 -0.061229
v -0.147821 2.300000 -0.061229
v -0.113137 0.800000 -0.113137
v -0.113137 2.300000 -0.113137
v -0.061229 0.800000 -0.147821
v -0.061229 2.300000 -0.147821
v -0.250000 0.100000 -0.080000
v -0.250000 0.800000 -0.080000
v -0.210000 0.100000 -0.069282
v -0.210000 0.800000 -0.069282
v -0.180718 0.100000 -0.040000
v -0.180718 0.800000 -0.040000
v -0.170000 0.100000 0.000000
v -0.170000 0.800000 0.000000
v -0.180718 0.100000 0.040000
v -0.180718 0.800000 0.040000
v -0.210000 0.100000 0.069282
v -0.210000 0.800000 0.069282
v -0.250000 0.100000 0.080000
v -0.250000 0.800000 0.080000
v -0.290000 0.100000 0.069282
v -0.290000 0.800000 0.069282
v -0.319282 0.100000 0.040000
v -0.319282 0.800000 0.040000
v -0.330000 0.100000 -0.000000
v -0.330000 0.800000 -0.000000
v -0.319282 0.100000 -0.040000
v -0.319282 0.800000 -0.040000
v -0.290000 0.100000 -0.069282
v -0.290000 0.800000 -0.069282
v 0.250000 0.100000 -0.080000
v 0.250000 0.800000 -0.080000
v 0.290000 0.100000 -0.069282
v 0.290000 0.800000 -0.069282
v 0.319282 0.100000 -0.040000
v 0.319282 0.800000 -0.040000
v 0.330000 0.100000 0.000000
v 0.330000 0.800000 0.000000
v 0.319282 0.100000 0.040000
v 0.319282 0.800000 0.040000
v 0.290000 0.100000 0.069282
v 0.290000 0.800000 0.069282
v 0.250000 0.100000 0.080000
v 0.250000 0.800000 0.080000
v 0.210000 0.100000 0.069282
v 0.210000 0.800000 0.069282
v 0.180718 0.100000 0.040000
v 0.180718 0.800000 0.040000
v 0.170000 0.100000 -0.000000
v 0.170000 0.800000 -0.000000
v 0.180718 0.100000 -0.040000
v 0.180718 0.800000 -0.040000
v 0.210000 0.100000 -0.069282
v 0.210000 0.800000 -0.069282
vt 1.000000 0.500000
vt 1.000000 1.000000
vt 0.937500 1.000000
vt 0.937500 0.500000
vt 0.875000 1.000000
vt 0.875000 0.500000
vt 0.812500 1.000000
vt 0.812500 0.500000
vt 0.750000 1.000000
vt 0.750000 0.500000
vt 0.687500 1.000000
vt 0.687500 0.500000
vt 0.625000 1.000000
vt 0.625000 0.500000
vt 0.562500 1.000000
vt 0.562500 0.500000
vt 0.500000 1.000000
vt 0.500000 0.500000
vt 0.437500 1.000000
vt 0.437500 0.500000
vt 0.375000 1.000000
vt 0.375000 0.500000
vt 0.312500 1.000000
vt 0.312500 0.500000
vt 0.250000 1.000000
vt 0.250000 0.500000
vt 0.187500 1.000000
vt 0.187500 0.500000
vt 0.125000 1.000000
vt 0.125000 0.500000
vt 0.341844 0.471731
vt 0.250000 0.490000
vt 0.158156 0.471731
vt 0.080294 0.419706
vt 0.028269 0.341844
vt 0.010000 0.250000
vt 0.028269 0.158156
vt 0.080294 0.080294
vt 0.158156 0.028269
vt 0.250000 0.010000
vt 0.341844 0.028269
vt 0.419706 0.080294
vt 0.471731 0.158156
vt 0.490000 0.250000
vt 0.471731 0.341844
vt 0.419706 0.419706
vt 0.062500 1.000000
vt 0.062500 0.500000
vt 0.000000 1.000000
vt 0.000000 0.500000
vt 0.750000 0.490000
vt 0.841844 0.471731
vt 0.919706 0.419706
vt 0.971731 0.341844
vt 0.990000 0.250000
vt 0.971731 0.158156
vt 0.919706 0.080294
vt 0.841844 0.028269
vt 0.750000 0.010000
vt 0.658156 0.028269
vt 0.580294 0.080294
vt 0.528269 0.158156
vt 0.510000 0.250000
vt 0.528269 0.341844
vt 0.580294 0.419706
vt 0.658156 0.471731
vt 1.000000 0.500000
vt 1.000000 1.000000
vt 0.937500 1.000000
vt 0.937500 0.500000
vt 0.875000 1.000000
vt 0.875000 0.500000
vt 0.812500 1.000000
vt 0.812500 0.500000
vt 0.750000 1.000000
vt 0.750000 0.500000
vt 0.687500 1.000000
vt 0.687500 0.500000
vt 0.625000 1.000000
vt 0.625000 0.500000
vt 0.562500 1.000000
vt 0.562500 0.500000
vt 0.500000 1.000000
vt 0.500000 0.500000
vt 0.437500 1.000000
vt 0.437500 0.500000
vt 0.375000 1.000000
vt 0.375000 0.500000
vt 0.312500 1.000000
vt 0.312500 0.500000
vt 0.250000 1.000000
vt 0.250000 0.500000
vt 0.187500 1.000000
vt 0.187500 0.500000
vt 0.125000 1.000000
vt 0.125000 0.500000
vt 0.341844 0.471731
vt 0.250000 0.490000
vt 0.158156 0.471731
vt 0.080294 0.419706
vt 0.028269 0.341844
vt 0.010000 0.250000
vt 0.028269 0.158156
vt 0.080294 0.080294
vt 0.158156 0.028269
vt 0.250000 0.010000
vt 0.341844 0.028269
vt 0.419706 0.080294
vt 0.471731 0.158156
vt 0.490000 0.250000
vt 0.471731 0.341844
vt 0.419706 0.419706
vt 0.062500 1.000000
vt 0.062500 0.500000
vt 0.000000 1.000000
vt 0.000000 0.500000
vt 0.750000 0.490000
vt 0.841844 0.471731
vt 0.919706 0.419706
vt 0.971731 0.341844
vt 0.990000 0.250000
vt 0.971731 0.158156
vt 0.919706 0.080294
vt 0.841844 0.028269
vt 0.750000 0.010000
vt 0.658156 0.028269
vt 0.580294 0.080294
vt 0.528269 0.158156
vt 0.510000 0.250000
vt 0.528269 0.341844
vt 0.580294 0.419706
vt 0.658156 0.471731
vt 1.000000 0.500000
vt 1.000000 1.000000
vt 0.916667 1.000000
vt 0.916667 0.500000
vt 0.833333 1.000000
vt 0.833333 0.500000
vt 0.750000 1.000000
vt 0.750000 0.500000
vt 0.666667 1.000000
vt 0.666667 0.500000
vt 0.583333 1.000000
vt 0.583333 0.500000
vt 0.500000 1.000000
vt 0.500000 0.500000
vt 0.416667 1.000000
vt 0.416667 0.500000
vt 0.333333 1.000000
vt 0.333333 0.500000
vt 0.250000 1.000000
vt 0.250000 0.500000
vt 0.166667 1.000000
vt 0.166667 0.500000
vt 0.370000 0.457846
vt 0.250000 0.490000
vt 0.130000 0.457846
vt 0.042154 0.370000
vt 0.010000 0.250000
vt 0.042154 0.130000
vt 0.130000 0.042154
vt 0.250000 0.010000
vt 0.370000 0.042154
vt 0.457846 0.130000
vt 0.490000 0.250000
vt 0.457846 0.370000
vt 0.083333 1.000000
vt 0.083333 0.500000
vt 0.000000 1.000000
vt 0.000000 0.500000
vt 0.750000 0.490000
vt 0.870000 0.457846
vt 0.957846 0.370000
vt 0.990000 0.250000
vt 0.957846 0.130000
vt 0.870000 0.042154
vt 0.750000 0.010000
vt 0.630000 0.042154
vt 0.542154 0.130000
vt 0.510000 0.250000
vt 0.542154 0.370000
vt 0.630000 0.457846
vt 1.000000 0.500000
vt 1.000000 1.000000
vt 0.916667 1.000000
vt 0.916667 0.500000
vt 0.833333 1.000000
vt 0.833333 0.500000
vt 0.750000 1.000000
vt 0.750000 0.500000
vt 0.666667 1.000000
vt 0.666667 0.500000
vt 0.583333 1.000000
vt 0.583333 0.500000
vt 0.500000 1.000000
vt 0.500000 0.500000
vt 0.416667 1.000000
vt 0.416667 0.500000
vt 0.333333 1.000000
vt 0.333333 0.500000
vt 0.250000 1.000000
vt 0.250000 0.500000
vt 0.166667 1.000000
vt 0.166667 0.500000
vt 0.370000 0.457846
vt 0.250000 0.490000
vt 0.130000 0.457846
vt 0.042154 0.370000
vt 0.010000 0.250000
vt 0.042154 0.130000
vt 0.130000 0.042154
vt 0.250000 0.010000
vt 0.370000 0.042154
vt 0.457846 0.130000
vt 0.490000 0.250000
vt 0.457846 0.370000
vt 0.083333 1.000000
vt 0.083333 0.500000
vt 0.000000 1.000000
vt 0.000000 0.500000
vt 0.750000 0.490000
vt 0.870000 0.457846
vt 0.957846 0.370000
vt 0.990000 0.250000
vt 0.957846 0.130000
vt 0.870000 0.042154
vt 0.750000 0.010000
vt 0.630000 0.042154
vt 0.542154 0.130000
vt 0.510000 0.250000
vt 0.542154 0.370000
vt 0.630000 0.457846
vn 0.1951 0.0000 -0.9808
vn 0.5556 0.0000 -0.8315
vn 0.8315 0.0000 -0.5556
vn 0.9808 0.0000 -0.1951
vn 0.9808 0.0000 0.1951
vn 0.8315 0.0000 0.5556
vn 0.5556 0.0000 0.8315
vn 0.1951 0.0000 0.9808
vn -0.1951 0.0000 0.9808
vn -0.5556 0.0000 0.8315
vn -0.8315 0.0000 0.5556
vn -0.9808 0.0000 0.1951
vn -0.9808 0.0000 -0.1951
vn -0.8315 0.0000 -0.5556
vn 0.0000 1.0000 0.0000
vn -0.5556 0.0000 -0.8315
vn -0.1951 0.0000 -0.9808
vn 0.0000 -1.0000 0.0000
vn 0.2588 0.0000 -0.9659
vn 0.7071 0.0000 -0.7071
vn 0.9659 0.0000 -0.2588
vn 0.9659 0.0000 0.2588
vn 0.7071 0.0000 0.7071
vn 0.2588 0.0000 0.9659
vn -0.2588 0.0000 0.9659
vn -0.7071 0.0000 0.7071
vn -0.9659 0.0000 0.2588
vn -0.9659 0.0000 -0.2588
vn -0.7071 0.0000 -0.7071
vn -0.2588 0.0000 -0.9659
usemtl None
s off
f 1/1/1 2/2/1 4/3/1 3/4/1
f 3/4/2 4/3/2 6/5/2 5/6/2
f 5/6/3 6/5/3 8/7/3 7/8/3
f 7/8/4 8/7/4 10/9/4 9/10/4
f 9/10/5 10/9/5 12/11/5 11/12/5
f 11/12/6 12/11/6 14/13/6 13/14/6
f 13/14/7 14/13/7 16/15/7 15/16/7
f 15/16/8 16/15/8 18/17/8 17/18/8
f 17/18/9 18/17/9 20/19/9 19/20/9
f 19/20/10 20/19/10 22/21/10 21/22/10
f 21/22/11 22/21/11 24/23/11 23/24/11
f 23/24/12 24/23/12 26/25/12 25/26/12
f 25/26/13 26/25/13 28/27/13 27/28/13
f 27/28/14 28/27/14 30/29/14 29/30/14
f 4/31/15 2/32/15 32/33/15 30/34/15 28/35/15 26/36/15 24/37/15 22/38/15 20/39/15 18/40/15 16/41/15 14/42/15 12/43/15 10/44/15 8/45/15 6/46/15
f 29/30/16 30/29/16 32/47/16 31/48/16
f 31/48/17 32/47/17 2/49/17 1/50/17
f 1/51/18 3/52/18 5/53/18 7/54/18 9/55/18 11/56/18 13/57/18 15/58/18 17/59/18 19/60/18 21/61/18 23/62/18 25/63/18 27/64/18 29/65/18 31/66/18
f 33/67/1 34/68/1 36/69/1 35/70/1
f 35/70/2 36/69/2 38/71/2 37/72/2
f 37/72/3 38/71/3 40/73/3 39/74/3
f 39/74/4 40/73/4 42/75/4 41/76/4
f 41/76/5 42/75/5 44/77/5 43/78/5
f 43/78/6 44/77/6 46/79/6 45/80/6
f 45/80/7 46/79/7 48/81/7 47/82/7
f 47/82/8 48/81/8 50/83/8 49/84/8
f 49/84/9 50/83/9 52/85/9 51/86/9
f 51/86/10 52/85/10 54/87/10 53/88/10
f 53/88/11 54/87/11 56/89/11 55/90/11
f 55/90/12 56/89/12 58/91/12 57/92/12
f 57/92/13 58/91/13 60/93/13 59/94/13
f 59/94/14 60/93/14 62/95/14 61/96/14
f 36/97/15 34/98/15 64/99/15 62/100/15 60/101/15 58/102/15 56/103/15 54/104/15 52/105/15 50/106/15 48/107/15 46/108/15 44/109/15 42/110/15 40/111/15 38/112/15
f 61/96/16 62/95/16 64/113/16 63/114/16
f 63/114/17 64/113/17 34/115/17 33/116/17
f 33/117/18 35/118/18 37/119/18 39/120/18 41/121/18 43/122/18 45/123/18 47/124/18 49/125/18 51/126/18 53/127/18 55/128/18 57/129/18 59/130/18 61/131/18 63/132/18
f 65/133/19 66/134/19 68/135/19 67/136/19
f 67/136/20 68/135/20 70/137/20 69/138/20
f 69/138/21 70/137/21 72/139/21 71/140/21
f 71/140/22 72/139/22 74/141/22 73/142/22
f 73/142/23 74/141/23 76/143/23 75/144/23
f 75/144/24 76/143/24 78/145/24 77/146/24
f 77/146/25 78/145/25 80/147/25 79/148/25
f 79/148/26 80/147/26 82/149/26 81/150/26
f 81/150/27 82/149/27 84/151/27 83/152/27
f 83/152/28 84/151/28 86/153/28 85/154/28
f 68/155/15 66/156/15 88/157/15 86/158/15 84/159/15 82/160/15 80/161/15 78/162/15 76/163/15 74/164/15 72/165/15 70/166/15
f 85/154/29 86/153/29 88/167/29 87/168/29
f 87/168/30 88/167/30 66/169/30 65/170/30
f 65/171/18 67/172/18 69/173/18 71/174/18 73/175/18 75/176/18 77/177/18 79/178/18 81/179/18 83/180/18 85/181/18 87/182/18
f 89/183/19 90/184/19 92/185/19 91/186/19
f 91/186/20 92/185/20 94/187/20 93/188/20
f 93/188/21 94/187/21 96/189/21 95/190/21
f 95/190/22 96/189/22 98/191/22 97/192/22
f 97/192/23 98/191/23 100/193/23 99/194/23
f 99/194/24 100/193/24 102/195/24 101/196/24
f 101/196/25 102/195/25 104/197/25 103/198/25
f 103/198/26 104/197/26 106/199/26 105/200/26
f 105/200/27 106/199/27 108/201/27 107/202/27
f 107/202/28 108/201/28 110/203/28 109/204/28
f 92/205/15 90/206/15 112/207/15 110/208/15 108/209/15 106/210/15 104/211/15 102/212/15 100/213/15 98/214/15 96/215/15 94/216/15
f 109/204/29 110/203/29 112/217/29 111/218/29
f 111/218/30 112/217/30 90/219/30 89/220/30
f 89/221/18 91/222/18 93/223/18 95/224/18 97/225/18 99/226/18 101/227/18 103/228/18 105/229/18 107/230/18 109/231/18 111/232/18
